# xmcd CD database file
#
# Track frame offsets:
#	150
#	43873
#	76123
#	119187
#	144111
#	176532
#	226790
#	254766
#	291666
#
# Disc length: 4432 seconds
#
# Revision: 1
# Processed by: cddbd v1.5.1PL0 Copyright (c) Steve Scherf et al.
# Submitted via: CDex 1.51
#
DISCID=82114e09
DTITLE=Karl Heinz Miklin - Looking Back
DYEAR=1994
DGENRE=Jazz
TTITLE0=Looking Back
TTITLE1=Strange Sound
TTITLE2=Jahrestag
TTITLE3=Carinthia
TTITLE4=Dawn
TTITLE5=Goodby pork pie hat don't explain
TTITLE6=Moon
TTITLE7=Cereza
TTITLE8=In a sentimental mood
EXTD=YEAR: 1994
EXTT0=
EXTT1=
EXTT2=
EXTT3=
EXTT4=
EXTT5=
EXTT6=
EXTT7=
EXTT8=
PLAYORDER=
